<svg
  version="1.0"
  xmlns="http://www.w3.org/2000/svg"
  xmlns:xlink="http://www.w3.org/1999/xlink"
  width="512"
  height="512"
  viewBox="0 0 512 512"
>
  <svg id="global-svg-defs" version="1.0" xmlns="http://www.w3.org/2000/svg" width="0" height="0"
    viewBox="0 0 340.000000 250.000000" preserveAspectRatio="xMidYMid meet"
    color-interpolation-filters="sRGB" class="el-tooltip" style="margin: auto;"
    xmlns:xlink="http://www.w3.org/1999/xlink">
    <defs>
      <pattern id="watermark" patternUnits="userSpaceOnUse" width="100%" height="100%">
        <image xlink:href="https://www.logosc.cn/img/watermark/LOGOSC-watermark.png" x="0" y="0"
          width="100%" height="100%">
        </image>
      </pattern>
      <linearGradient id="92" x1="0%" y1="0%" x2="100%" y2="0%">
        <stop offset="0%" stop-color="#fa71cd"></stop>
        <stop offset="100%" stop-color="#9b59b6"></stop>
      </linearGradient>
      <linearGradient id="93" x1="0%" y1="0%" x2="100%" y2="0%">
        <stop offset="0%" stop-color="#f9d423"></stop>
        <stop offset="100%" stop-color="#f83600"></stop>
      </linearGradient>
      <linearGradient id="94" x1="0%" y1="0%" x2="100%" y2="0%">
        <stop offset="0%" stop-color="#0064d2"></stop>
        <stop offset="100%" stop-color="#1cb0f6"></stop>
      </linearGradient>
      <linearGradient id="95" x1="0%" y1="0%" x2="100%" y2="0%">
        <stop offset="0%" stop-color="#f00978"></stop>
        <stop offset="100%" stop-color="#3f51b1"></stop>
      </linearGradient>
      <linearGradient id="96" x1="0%" y1="0%" x2="100%" y2="0%">
        <stop offset="0%" stop-color="#7873f5"></stop>
        <stop offset="100%" stop-color="#ec77ab"></stop>
      </linearGradient>
      <linearGradient id="97" x1="0%" y1="0%" x2="100%" y2="0%">
        <stop offset="0%" stop-color="#f9d423"></stop>
        <stop offset="100%" stop-color="#e14fad"></stop>
      </linearGradient>
      <linearGradient id="98" x1="0%" y1="0%" x2="100%" y2="0%">
        <stop offset="0%" stop-color="#009efd"></stop>
        <stop offset="100%" stop-color="#2af598"></stop>
      </linearGradient>
      <linearGradient id="99" x1="0%" y1="0%" x2="100%" y2="0%">
        <stop offset="0%" stop-color="#ffcc00"></stop>
        <stop offset="100%" stop-color="#00b140"></stop>
      </linearGradient>
      <linearGradient id="100" x1="0%" y1="0%" x2="100%" y2="0%">
        <stop offset="0%" stop-color="#d51007"></stop>
        <stop offset="100%" stop-color="#ff8177"></stop>
      </linearGradient>
      <linearGradient id="102" x1="0%" y1="0%" x2="100%" y2="0%">
        <stop offset="0%" stop-color="#a2b6df"></stop>
        <stop offset="100%" stop-color="#0c3483"></stop>
      </linearGradient>
      <linearGradient id="103" x1="0%" y1="0%" x2="100%" y2="0%">
        <stop offset="0%" stop-color="#7ac5d8"></stop>
        <stop offset="100%" stop-color="#eea2a2"></stop>
      </linearGradient>
      <linearGradient id="104" x1="0%" y1="0%" x2="100%" y2="0%">
        <stop offset="0%" stop-color="#00ecbc"></stop>
        <stop offset="100%" stop-color="#007adf"></stop>
      </linearGradient>
      <linearGradient id="105" x1="0%" y1="0%" x2="100%" y2="0%">
        <stop offset="0%" stop-color="#b88746"></stop>
        <stop offset="100%" stop-color="#fdf5a6"></stop>
      </linearGradient>
      <linearGradient id="107" x1="0%" y1="0%" x2="100%" y2="0%">
        <stop offset="0%" stop-color="#ffbf00"></stop>
        <stop offset="100%" stop-color="#26b5f8"></stop>
      </linearGradient>
    </defs>
  </svg>
  <rect
    x="0"
    y="0"
    width="100%"
    height="100%"
    fill="transparent"
    fill-opacity="1"
  ></rect>
  <svg data-v-0dd9719b="" version="1.0" xmlns="http://www.w3.org/2000/svg"
    xmlns:xlink="http://www.w3.org/1999/xlink" width="100%" height="100%" viewBox="0 0 100 100"
    preserveAspectRatio="xMidYMid meet" color-interpolation-filters="sRGB" style="margin: auto;">
    <rect data-v-0dd9719b="" x="0" y="0" width="100%" height="100%" fill="#ffffff" fill-opacity="1"
      class="background" style="display: none;" />
    <rect data-v-0dd9719b="" x="0" y="0" width="100%" height="100%" fill="url(#watermark)"
      fill-opacity="1" class="watermarklayer" style="display: none;" />
    <g data-v-0dd9719b="" fill="#333" class="iconsvg-imagesvg">
      <rect fill="#333" fill-opacity="0" stroke-width="2" x="0" y="0" width="100" height="100"
        class="image-rect" />
      <svg viewBox="0 0 60 60" x="0" y="0" width="100" height="100" class="image-svg-svg bn"
        style="overflow: visible;">
        <g hollow-target="iconBnFill" mask="url(#dc8297ca-a085-436e-8dfc-3e9806387f29)">
          <g>
            <svg xmlns="http://www.w3.org/2000/svg" xmlns:xlink="http://www.w3.org/1999/xlink"
              version="1.1" x="0" y="0" viewBox="5 5 90 90" enable-background="new 0 0 100 100"
              xml:space="preserve" style="overflow: visible;" width="60" height="60"
              filtersec="colorsb6353798715" filter="url(#y8PVlt8qeT76aiBrrm8Fg)"><g transform="scale(1, 1) skewX(0)"><path d="M75.921,5H24.305C13.752,5,5,13.752,5,24.305v51.616C5,86.472,13.752,95,24.305,95h51.616C86.472,95,95,86.472,95,75.921  V24.305C95,13.752,86.472,5,75.921,5z"/></g><defs><filter id="y8PVlt8qeT76aiBrrm8Fg"><feColorMatrix type="matrix" values="0 0 0 0 0.19921875  0 0 0 0 0.19921875  0 0 0 0 0.19921875  0 0 0 1 0"/></filter></defs></svg>
          </g>
          <g filter="url(#colors1858787076)">
            <svg xmlns="http://www.w3.org/2000/svg" xmlns:xlink="http://www.w3.org/1999/xlink"
              viewBox="0 0 98.748 53.172000000000004" width="45" height="45" x="7.5" y="7.5"
              class="image-svg-letter">
              <path transform="translate(-0.9000000000000001 52.48800000000001)"
                d="M10.80-34.78L15.41-22.75L20.16-9.86L21.74-5.47Q22.03-4.75 22.25-4.75Q22.46-4.75 22.61-5.00Q22.75-5.26 23.47-7.13L23.47-7.13L30.96-26.21L36.00-38.81L39.53-48.46L40.03-49.97Q40.32-50.54 41.00-51.05Q41.69-51.55 42.59-51.59Q43.49-51.62 44.03-50.98Q44.57-50.33 44.68-49.72Q44.78-49.10 44.06-47.23L44.06-47.23L42.12-42.26L37.87-31.39L31.25-15.05L27.36-4.90Q25.70-0.65 24.55 0.04Q23.40 0.72 22.25 0.68Q21.10 0.65 20.05 0Q19.01-0.65 17.93-3.53L17.93-3.53L14.83-11.59L6.12-34.85L1.37-47.16Q0.86-48.46 0.90-49.21Q0.94-49.97 1.48-50.58Q2.02-51.19 3.10-51.19L3.10-51.19Q3.82-51.19 4.32-50.87Q4.82-50.54 5.26-49.39L5.26-49.39L10.80-34.78ZM56.52-45.72L68.62-17.35L71.06-11.16L72.22-7.99Q72.50-7.27 72.72-7.31Q72.94-7.34 73.30-7.78Q73.66-8.21 74.09-9.14L74.09-9.14L82.58-28.80L91.01-47.38L92.23-50.11Q92.95-51.26 93.85-51.88Q94.75-52.49 96.12-52.49Q97.49-52.49 98.50-51.48L98.50-51.48Q99.14-50.83 99.40-50.04Q99.65-49.25 99.65-47.66L99.65-47.66L99.58-2.74Q99.58-0.72 97.31-0.68Q95.04-0.65 95.04-2.59L95.04-2.59L95.04-37.51L95.18-39.46L95.54-44.06Q95.76-46.58 95.65-46.58Q95.54-46.58 95.36-46.58Q95.18-46.58 95.04-46.44L95.04-46.44L94.46-44.86L91.80-38.66L84.67-23.11L77.47-6.98Q75.67-2.95 75.20-2.38Q74.74-1.80 74.23-1.44Q73.73-1.08 72.94-1.08L72.94-1.08Q71.86-1.08 71.28-1.51Q70.70-1.94 70.49-2.27Q70.27-2.59 68.62-6.41L68.62-6.41L59.04-28.73L54.65-39.17L52.42-45.94Q52.27-46.22 52.02-46.22Q51.77-46.22 51.62-46.01Q51.48-45.79 51.52-45.43Q51.55-45.07 51.62-44.57L51.62-44.57L51.70-41.90L51.70-39.53L51.70-3.02Q51.70-1.87 51.05-1.30Q50.40-0.72 49.50-0.68Q48.60-0.65 48.02-1.22Q47.45-1.80 47.45-3.02L47.45-3.02L47.45-43.56Q47.45-46.44 47.52-47.88Q47.59-49.32 47.99-50.22Q48.38-51.12 49.03-51.80Q49.68-52.49 51.19-52.49L51.19-52.49Q52.20-52.49 53.14-51.91Q54.07-51.34 54.65-49.97L54.65-49.97L56.52-45.72Z" />
            </svg>
          </g>
        </g>
        <mask id="dc8297ca-a085-436e-8dfc-3e9806387f29">
          <g fill="white">
            <svg xmlns="http://www.w3.org/2000/svg" xmlns:xlink="http://www.w3.org/1999/xlink"
              version="1.1" x="0" y="0" viewBox="5 5 90 90" enable-background="new 0 0 100 100"
              xml:space="preserve" style="overflow: visible;" width="60" height="60"
              filtersec="colorsb6353798715"><g transform="scale(1, 1) skewX(0)"><path d="M75.921,5H24.305C13.752,5,5,13.752,5,24.305v51.616C5,86.472,13.752,95,24.305,95h51.616C86.472,95,95,86.472,95,75.921  V24.305C95,13.752,86.472,5,75.921,5z"/></g><defs/></svg>
          </g>
          <g fill="black">
            <svg xmlns="http://www.w3.org/2000/svg" xmlns:xlink="http://www.w3.org/1999/xlink"
              viewBox="0 0 98.748 53.172000000000004" width="45" height="45" x="7.5" y="7.5"
              class="image-svg-letter">
              <path transform="translate(-0.9000000000000001 52.48800000000001)"
                d="M10.80-34.78L15.41-22.75L20.16-9.86L21.74-5.47Q22.03-4.75 22.25-4.75Q22.46-4.75 22.61-5.00Q22.75-5.26 23.47-7.13L23.47-7.13L30.96-26.21L36.00-38.81L39.53-48.46L40.03-49.97Q40.32-50.54 41.00-51.05Q41.69-51.55 42.59-51.59Q43.49-51.62 44.03-50.98Q44.57-50.33 44.68-49.72Q44.78-49.10 44.06-47.23L44.06-47.23L42.12-42.26L37.87-31.39L31.25-15.05L27.36-4.90Q25.70-0.65 24.55 0.04Q23.40 0.72 22.25 0.68Q21.10 0.65 20.05 0Q19.01-0.65 17.93-3.53L17.93-3.53L14.83-11.59L6.12-34.85L1.37-47.16Q0.86-48.46 0.90-49.21Q0.94-49.97 1.48-50.58Q2.02-51.19 3.10-51.19L3.10-51.19Q3.82-51.19 4.32-50.87Q4.82-50.54 5.26-49.39L5.26-49.39L10.80-34.78ZM56.52-45.72L68.62-17.35L71.06-11.16L72.22-7.99Q72.50-7.27 72.72-7.31Q72.94-7.34 73.30-7.78Q73.66-8.21 74.09-9.14L74.09-9.14L82.58-28.80L91.01-47.38L92.23-50.11Q92.95-51.26 93.85-51.88Q94.75-52.49 96.12-52.49Q97.49-52.49 98.50-51.48L98.50-51.48Q99.14-50.83 99.40-50.04Q99.65-49.25 99.65-47.66L99.65-47.66L99.58-2.74Q99.58-0.72 97.31-0.68Q95.04-0.65 95.04-2.59L95.04-2.59L95.04-37.51L95.18-39.46L95.54-44.06Q95.76-46.58 95.65-46.58Q95.54-46.58 95.36-46.58Q95.18-46.58 95.04-46.44L95.04-46.44L94.46-44.86L91.80-38.66L84.67-23.11L77.47-6.98Q75.67-2.95 75.20-2.38Q74.74-1.80 74.23-1.44Q73.73-1.08 72.94-1.08L72.94-1.08Q71.86-1.08 71.28-1.51Q70.70-1.94 70.49-2.27Q70.27-2.59 68.62-6.41L68.62-6.41L59.04-28.73L54.65-39.17L52.42-45.94Q52.27-46.22 52.02-46.22Q51.77-46.22 51.62-46.01Q51.48-45.79 51.52-45.43Q51.55-45.07 51.62-44.57L51.62-44.57L51.70-41.90L51.70-39.53L51.70-3.02Q51.70-1.87 51.05-1.30Q50.40-0.72 49.50-0.68Q48.60-0.65 48.02-1.22Q47.45-1.80 47.45-3.02L47.45-3.02L47.45-43.56Q47.45-46.44 47.52-47.88Q47.59-49.32 47.99-50.22Q48.38-51.12 49.03-51.80Q49.68-52.49 51.19-52.49L51.19-52.49Q52.20-52.49 53.14-51.91Q54.07-51.34 54.65-49.97L54.65-49.97L56.52-45.72Z" />
            </svg>
          </g>
        </mask>
      </svg>
      <defs>
        <filter id="colors1858787076">
          <feColorMatrix type="matrix"
            values="0 0 0 0 0.19921875  0 0 0 0 0.19921875  0 0 0 0 0.19921875  0 0 0 1 0"
            class="icon-fecolormatrix" />
        </filter>
        <filter id="colorsf1300106051">
          <feColorMatrix type="matrix"
            values="0 0 0 0 0.99609375  0 0 0 0 0.99609375  0 0 0 0 0.99609375  0 0 0 1 0"
            class="icon-fecolormatrix" />
        </filter>
        <filter id="colorsb6353798715">
          <feColorMatrix type="matrix" values="0 0 0 0 0  0 0 0 0 0  0 0 0 0 0  0 0 0 1 0"
            class="icon-fecolormatrix" />
        </filter>
      </defs>
    </g>
    <defs v-gra="od" />
  </svg>
</svg>